<svg width="118" height="48" viewBox="0 0 118 48" fill="none" xmlns="http://www.w3.org/2000/svg">
<g id="Theme=Dark, Size=L" clip-path="url(#clip0_1234_308)">
<path id="Union" d="M73.4786 39.1934C73.3232 39.3326 73.2456 39.5415 73.2456 39.8137C73.2456 40.0858 73.3201 40.2852 73.4693 40.4276C73.6184 40.5732 73.839 40.6428 74.131 40.6428H75.0413V38.9814H74.1559C73.8607 38.9814 73.6339 39.051 73.4786 39.1902M76.0696 38.1174V42.6966H75.0413V41.4814H74.0906L73.2953 42.6966H72.1955L73.1337 41.3168C72.8293 41.1903 72.5963 41.0004 72.4347 40.744C72.2732 40.4877 72.1924 40.1839 72.1924 39.8263C72.1924 39.4687 72.2732 39.1681 72.4285 38.9149C72.587 38.6586 72.8106 38.4624 73.1027 38.3263C73.3947 38.1902 73.7365 38.1206 74.131 38.1206H76.0696V38.1174ZM70.7105 41.7093C70.8627 41.5732 70.9373 41.377 70.9373 41.1206C70.9373 40.6459 70.6515 40.4086 70.0767 40.4086H69.1385V41.9118H70.0767C70.347 41.9118 70.5583 41.8453 70.7105 41.7093ZM71.5462 39.994C71.8382 40.244 71.9874 40.6111 71.9874 41.0985C71.9874 41.6175 71.8258 42.0131 71.5027 42.2852C71.1796 42.5574 70.726 42.6934 70.1389 42.6934H68.1102V38.1143H69.1447V39.6175H70.288C70.8348 39.6175 71.2573 39.7409 71.5493 39.9909M66.2368 41.32C66.2368 40.9403 65.9945 40.7504 65.5036 40.7504H64.3603V41.9086H65.5036C65.9914 41.9086 66.2368 41.7124 66.2368 41.32ZM64.3634 40.013H65.3327C65.5595 40.013 65.7304 39.9656 65.8453 39.8738C65.9603 39.7788 66.0193 39.6428 66.0193 39.4592C66.0193 39.2757 65.9603 39.1428 65.8422 39.0478C65.7242 38.9529 65.5533 38.9054 65.3327 38.9054H64.3634V40.0162V40.013ZM67.0725 40.7124C67.2185 40.8991 67.29 41.1301 67.29 41.4055C67.29 41.8105 67.1377 42.127 66.8364 42.3548C66.535 42.5827 66.1032 42.6934 65.544 42.6934H63.3289V38.1143H65.4228C65.9448 38.1143 66.3518 38.2155 66.6438 38.4212C66.9358 38.6269 67.0818 38.9181 67.0818 39.2978C67.0818 39.5257 67.0259 39.725 66.9141 39.8959C66.8022 40.0668 66.6469 40.2029 66.445 40.3042C66.7183 40.3864 66.9296 40.5225 67.0756 40.7092M60.7907 41.6808C61.0051 41.5574 61.1728 41.3833 61.294 41.1618C61.4151 40.9403 61.4773 40.6871 61.4773 40.4023C61.4773 40.1175 61.4151 39.8675 61.294 39.6428C61.1728 39.4212 61.0051 39.2472 60.7907 39.1238C60.5763 39.0004 60.3371 38.9371 60.0699 38.9371C59.8028 38.9371 59.5635 39.0004 59.3492 39.1238C59.1348 39.2472 58.967 39.4212 58.8459 39.6428C58.7247 39.8643 58.6626 40.1175 58.6626 40.4023C58.6626 40.6871 58.7247 40.9403 58.8459 41.1618C58.967 41.3833 59.1348 41.5574 59.3492 41.6808C59.5635 41.8042 59.8028 41.8675 60.0699 41.8675C60.3371 41.8675 60.5763 41.8042 60.7907 41.6808ZM58.8086 42.4624C58.4327 42.2567 58.1407 41.9751 57.9294 41.6143C57.7181 41.2535 57.6125 40.8516 57.6125 40.4023C57.6125 39.9529 57.7181 39.5478 57.9294 39.1902C58.1407 38.8295 58.4358 38.5478 58.8086 38.3421C59.1845 38.1364 59.6039 38.0351 60.0699 38.0351C60.5359 38.0351 60.9554 38.1364 61.3282 38.3421C61.701 38.5478 61.993 38.8295 62.2074 39.1902C62.4217 39.551 62.5274 39.9561 62.5274 40.4023C62.5274 40.8485 62.4186 41.2567 62.2074 41.6143C61.993 41.9751 61.701 42.2567 61.3282 42.4624C60.9554 42.6681 60.5359 42.7694 60.0699 42.7694C59.6039 42.7694 59.1814 42.6681 58.8086 42.4624ZM55.879 40.358C56.0405 40.2219 56.1244 40.0257 56.1244 39.7725C56.1244 39.5193 56.0436 39.3168 55.879 39.1807C55.7174 39.0447 55.4782 38.975 55.1675 38.975H54.3194V40.5637H55.1675C55.4813 40.5637 55.7174 40.494 55.879 40.358ZM56.2611 38.3136C56.5531 38.4497 56.7799 38.6396 56.9384 38.8896C57.0968 39.1396 57.1745 39.4339 57.1745 39.7725C57.1745 40.1111 57.0937 40.4023 56.9384 40.6523C56.7799 40.9023 56.5531 41.0953 56.2611 41.2282C55.9691 41.3611 55.6211 41.4276 55.2234 41.4276H54.3194V42.6903H53.2786V38.1111H55.2234C55.6211 38.1111 55.9659 38.1776 56.2611 38.3136ZM50.7342 41.6776C50.9486 41.5542 51.1163 41.3801 51.2375 41.1586C51.3587 40.9371 51.4208 40.6839 51.4208 40.3991C51.4208 40.1143 51.3587 39.8643 51.2375 39.6396C51.1163 39.4181 50.9486 39.244 50.7342 39.1206C50.5198 38.9972 50.2806 38.9339 50.0166 38.9339C49.7525 38.9339 49.5102 38.9972 49.2958 39.1206C49.0814 39.244 48.9137 39.4181 48.7925 39.6396C48.6713 39.8611 48.6092 40.1143 48.6092 40.3991C48.6092 40.6839 48.6713 40.9371 48.7925 41.1586C48.9137 41.3801 49.0814 41.5542 49.2958 41.6776C49.5102 41.801 49.7494 41.8643 50.0166 41.8643C50.2837 41.8643 50.523 41.801 50.7342 41.6776ZM48.7521 42.4593C48.3762 42.2536 48.0842 41.9719 47.8729 41.6111C47.6617 41.2504 47.556 40.8485 47.556 40.3991C47.556 39.9497 47.6617 39.5447 47.8729 39.1871C48.0842 38.8263 48.3793 38.5446 48.7521 38.3389C49.128 38.1333 49.5474 38.032 50.0135 38.032C50.4795 38.032 50.8989 38.1333 51.2717 38.3389C51.6445 38.5446 51.9365 38.8263 52.1509 39.1871C52.3652 39.5478 52.4709 39.9529 52.4709 40.3991C52.4709 40.8453 52.3621 41.2535 52.1509 41.6111C51.9365 41.9719 51.6445 42.2536 51.2717 42.4593C50.8989 42.665 50.4795 42.7662 50.0135 42.7662C49.5474 42.7662 49.1249 42.665 48.7521 42.4593ZM43.8186 41.0099C43.7503 41.3801 43.6447 41.6491 43.5048 41.8232H45.5149V38.9719H43.974L43.9553 39.6396C43.9336 40.1839 43.8901 40.6428 43.8217 41.0099M47.1739 41.8232V43.6365H46.2108V42.6871H43.0388V43.6365H42.0757L42.082 41.8232H42.2622C42.5324 41.8137 42.722 41.6143 42.8338 41.2219C42.9456 40.8295 43.014 40.2694 43.0388 39.5415L43.0885 38.1079H46.5432V41.8232H47.1739ZM41.4948 40.7282C41.6408 40.9213 41.7154 41.1491 41.7154 41.4055C41.7154 41.6839 41.6253 41.9276 41.4451 42.1301C41.2649 42.3358 41.0226 42.4909 40.715 42.6017C40.4074 42.7093 40.075 42.7662 39.7084 42.7662C39.4009 42.7662 39.0933 42.7251 38.7857 42.6491C38.4813 42.57 38.1892 42.4498 37.9158 42.2884L38.2358 41.5289C38.4316 41.6523 38.649 41.7441 38.8882 41.8074C39.1244 41.8706 39.3574 41.9023 39.5842 41.9023C39.8917 41.9023 40.1496 41.8453 40.3515 41.7314C40.5535 41.6175 40.656 41.4592 40.656 41.2535C40.656 41.0827 40.5876 40.9561 40.4478 40.8675C40.308 40.7789 40.1185 40.7377 39.8793 40.7377H38.7826V39.9402H39.8047C40.016 39.9402 40.1775 39.8959 40.2956 39.8105C40.4137 39.725 40.4727 39.6048 40.4727 39.4497C40.4727 39.2693 40.3888 39.1301 40.2179 39.032C40.0471 38.9339 39.8327 38.8801 39.5655 38.8801C39.3698 38.8801 39.1647 38.9086 38.9566 38.9624C38.7484 39.0162 38.5465 39.0985 38.3601 39.2061L38.0463 38.3833C38.5216 38.1333 39.0343 38.0098 39.5873 38.0098C39.9383 38.0098 40.2614 38.0605 40.5566 38.1681C40.8517 38.2725 41.0878 38.4244 41.2618 38.6269C41.4358 38.8295 41.5259 39.0605 41.5259 39.3263C41.5259 39.5447 41.4668 39.7377 41.3519 39.9086C41.2369 40.0795 41.0785 40.2092 40.8766 40.301C41.1375 40.3928 41.3426 40.5352 41.4886 40.7282M31.2302 38.1079H32.2647V41.0922L34.4083 38.1079H35.3839V42.6871H34.3555V39.7124L32.2119 42.6871H31.2302V38.1079ZM83.0815 33.0509L82.3701 31.2977L81.6586 33.0509H83.0846H83.0815ZM83.4077 33.8547H81.32L80.9223 34.8357H79.8567L81.8605 30.2566H82.8889L84.8989 34.8357H83.8085L83.4108 33.8547H83.4077ZM79.9344 31.1205H78.496V34.8357H77.4676V31.1205H76.0354V30.2566H79.9313V31.1205H79.9344ZM74.6374 32.5034C74.799 32.3642 74.8797 32.1711 74.8797 31.918C74.8797 31.6648 74.799 31.4623 74.6374 31.3262C74.4759 31.1901 74.2366 31.1205 73.9229 31.1205H73.0747V32.7091H73.9229C74.2366 32.7091 74.4727 32.6395 74.6374 32.5034ZM75.0195 30.4591C75.3116 30.5952 75.5384 30.785 75.6968 31.035C75.8552 31.285 75.936 31.5794 75.936 31.918C75.936 32.2566 75.8552 32.5477 75.6968 32.7977C75.5384 33.0477 75.3116 33.2408 75.0195 33.3737C74.7275 33.5066 74.3795 33.5731 73.9819 33.5731H73.0778V34.8357H72.0371V30.2566H73.9819C74.3795 30.2566 74.7244 30.323 75.0195 30.4591ZM69.4927 33.8231C69.707 33.6996 69.8748 33.5256 69.9959 33.3041C70.1171 33.0825 70.1792 32.8294 70.1792 32.5446C70.1792 32.2597 70.1171 32.0097 69.9959 31.7851C69.8748 31.5635 69.707 31.3895 69.4927 31.2661C69.2783 31.1426 69.0391 31.0794 68.7719 31.0794C68.5047 31.0794 68.2655 31.1426 68.0511 31.2661C67.8368 31.3895 67.669 31.5635 67.5478 31.7851C67.4267 32.0066 67.3645 32.2597 67.3645 32.5446C67.3645 32.8294 67.4267 33.0825 67.5478 33.3041C67.669 33.5256 67.8368 33.6996 68.0511 33.8231C68.2655 33.9465 68.5047 34.0098 68.7719 34.0098C69.0391 34.0098 69.2783 33.9465 69.4927 33.8231ZM67.5106 34.6047C67.1346 34.399 66.8426 34.1174 66.6314 33.7566C66.4201 33.3958 66.3145 32.9939 66.3145 32.5446C66.3145 32.0952 66.4201 31.6901 66.6314 31.3325C66.8426 30.9718 67.1377 30.6901 67.5106 30.4844C67.8834 30.2787 68.3059 30.1774 68.7719 30.1774C69.2379 30.1774 69.6573 30.2787 70.0301 30.4844C70.4029 30.6901 70.695 30.9718 70.9093 31.3325C71.1237 31.6933 71.2293 32.0984 71.2293 32.5446C71.2293 32.9908 71.1237 33.399 70.9093 33.7566C70.695 34.1174 70.4029 34.399 70.0301 34.6047C69.6573 34.8104 69.2379 34.9117 68.7719 34.9117C68.3059 34.9117 67.8834 34.8104 67.5106 34.6047ZM65.5098 30.2566V34.8357H64.4753V31.1205H62.4466V34.8357H61.412V30.2566H65.5098ZM57.6343 34.611C57.2646 34.4085 56.9725 34.1269 56.7613 33.7661C56.55 33.4053 56.4444 33.0003 56.4444 32.5477C56.4444 32.0952 56.55 31.687 56.7613 31.3294C56.9725 30.9686 57.2646 30.6901 57.6343 30.4844C58.004 30.2819 58.4203 30.1806 58.8832 30.1806C59.2715 30.1806 59.6257 30.2502 59.9395 30.3895C60.2532 30.5287 60.5173 30.7312 60.7317 30.9907L60.0637 31.6173C59.7593 31.2597 59.3833 31.0825 58.9329 31.0825C58.6533 31.0825 58.4047 31.1458 58.1873 31.2692C57.9698 31.3926 57.7989 31.5667 57.6778 31.7882C57.5566 32.0097 57.4945 32.2629 57.4945 32.5477C57.4945 32.8325 57.5566 33.0857 57.6778 33.3072C57.7989 33.5288 57.9698 33.7028 58.1873 33.8262C58.4047 33.9496 58.6533 34.0129 58.9329 34.0129C59.3833 34.0129 59.7593 33.8326 60.0637 33.4686L60.7317 34.0952C60.5173 34.361 60.2532 34.5636 59.9364 34.7028C59.6195 34.8421 59.2653 34.9117 58.877 34.9117C58.4203 34.9117 58.004 34.8104 57.6343 34.6079M52.8872 32.5034C53.0487 32.3642 53.1295 32.1711 53.1295 31.918C53.1295 31.6648 53.0487 31.4623 52.8872 31.3262C52.7256 31.1901 52.4864 31.1205 52.1726 31.1205H51.3245V32.7091H52.1726C52.4864 32.7091 52.7225 32.6395 52.8872 32.5034ZM53.2693 30.4591C53.5613 30.5952 53.7881 30.785 53.9466 31.035C54.105 31.285 54.1858 31.5794 54.1858 31.918C54.1858 32.2566 54.105 32.5477 53.9466 32.7977C53.7881 33.0477 53.5613 33.2408 53.2693 33.3737C52.9773 33.5066 52.6293 33.5731 52.2317 33.5731H51.3276V34.8357H50.2868V30.2566H52.2317C52.6293 30.2566 52.9742 30.323 53.2693 30.4591ZM49.6313 31.1205H48.1929V34.8357H47.1646V31.1205H45.7324V30.2566H49.6313V31.1205ZM45.0737 30.2566V34.8357H44.033V32.9591H41.9919V34.8357H40.9511V30.2566H41.9919V32.0604H44.033V30.2566H45.0737ZM40.1092 33.9845V34.8357H36.6297V30.2566H40.0253V31.1078H37.6611V32.1015H39.7488V32.9243H37.6611V33.9845H40.1092ZM35.9431 33.9718V35.8041H34.9862V34.8357H31.2302V30.2566H32.2647V33.9718H34.2685V30.2566H35.3031V33.9718H35.9462H35.9431ZM78.3934 4.36693C78.4276 4.36693 78.4587 4.39542 78.4618 4.42706C78.468 4.4682 78.4494 4.49352 78.4214 4.50618C77.6975 4.92707 77.1104 5.56632 76.7438 6.33532L76.7344 6.35114L69.8313 20.8957L68.4612 23.7818C68.4612 23.7818 68.427 23.8419 68.368 23.8419C68.309 23.8419 68.281 23.8008 68.2717 23.7723L67.7249 22.5887L60.7596 7.49673C60.567 7.07583 60.3806 6.62013 60.1538 6.2119C59.7437 5.47455 59.1255 4.8796 58.3768 4.50301C58.3488 4.49035 58.3302 4.45554 58.3364 4.42073C58.3457 4.38909 58.3706 4.36377 58.4078 4.36377H63.7669C63.7918 4.36377 63.826 4.38276 63.8353 4.41124C63.8477 4.44605 63.8415 4.4777 63.8135 4.50301C63.4283 4.88909 63.186 5.43024 63.186 6.02835C63.186 6.24987 63.2202 6.45874 63.2792 6.65811C63.4128 7.10432 63.6986 7.61382 63.8974 8.04104C65.1619 10.7974 66.4201 13.5538 67.7001 16.3038C68.1816 17.3291 68.6569 18.3576 69.1323 19.3893C69.1416 19.4083 69.1665 19.421 69.1882 19.421C69.2037 19.421 69.2286 19.4146 69.2441 19.3893C70.0394 17.7595 70.8161 16.1203 71.5897 14.4747L74.7834 7.71825C75.0413 7.1771 75.4079 6.57899 75.4079 5.95556C75.4079 5.37644 75.1562 4.85428 74.7523 4.50301C74.7244 4.48086 74.7151 4.44288 74.7337 4.41124C74.7461 4.38276 74.7741 4.36377 74.8052 4.36377H78.3903L78.3934 4.36693ZM30.9692 8.80371C30.9692 6.76887 32.7773 4.38276 35.7163 4.38276C37.6393 4.38276 38.531 5.24669 40.0657 5.5505C40.103 5.55682 40.134 5.58214 40.1527 5.61379C40.1682 5.6391 40.1744 5.67075 40.1713 5.69923L39.9073 8.34801C39.9041 8.38282 39.8793 8.4018 39.8544 8.40497C39.8203 8.40497 39.7954 8.38282 39.7923 8.3575C39.4381 6.32899 37.6859 5.19606 35.6914 5.17074C34.4083 5.15808 33.0849 5.69607 32.7587 7.06951C32.5816 7.81635 32.7773 8.43028 33.0787 8.90814C34.5668 11.2689 41.0443 14.0538 41.0443 18.5665C41.0443 22.152 38.3663 23.978 35.098 23.8419C33.8118 23.7849 32.5505 23.1267 31.5999 23.3957C31.5688 23.402 31.5439 23.402 31.5222 23.3957C31.4911 23.3862 31.4725 23.3735 31.4507 23.3451C31.0469 22.7818 30.7113 21.8545 30.7362 20.3545C30.7362 20.3324 30.7517 20.2754 30.8139 20.2627C30.8667 20.2501 30.9133 20.2849 30.9226 20.3102C31.6962 22.0697 33.1377 22.978 35.0825 23.0159C37.0025 23.0539 39.0591 22.2343 39.1213 20.1203C39.1896 17.8481 36.6949 16.1772 34.9893 14.8766C34.02 14.1392 32.448 12.8512 31.808 11.8417C31.0779 10.6961 30.9661 10.0379 30.9661 8.80687M118.178 4.42073C118.178 4.42073 118.194 4.4777 118.147 4.50618C117.557 4.85112 117.06 5.34163 116.706 5.93341C116.547 6.19607 116.417 6.49355 116.286 6.77203C113.788 12.0538 111.303 17.3545 108.762 22.614L108.352 23.4875V23.478C107.997 24.2027 107.535 24.9653 107.053 25.3862C106.5 25.8704 105.745 26.2059 104.512 26.247C104.493 26.247 104.459 26.2407 104.45 26.2027C104.437 26.1647 104.465 26.1362 104.481 26.1299C105.332 25.7059 105.932 25.1426 106.401 24.5223C106.904 23.8514 107.336 23.0033 107.712 22.19C107.718 22.1742 107.721 22.1552 107.721 22.1488C107.721 22.1393 107.718 22.114 107.712 22.0982L100.69 6.87963C100.541 6.55684 100.411 6.25937 100.224 5.96189C99.8299 5.3448 99.2738 4.83846 98.6214 4.50934C98.5965 4.49668 98.5686 4.46187 98.581 4.4239C98.5903 4.38909 98.6214 4.3701 98.6493 4.3701C100.386 4.3701 102.123 4.3701 103.859 4.3701C103.897 4.3701 103.925 4.39858 103.931 4.41757C103.937 4.43656 103.946 4.47137 103.915 4.50301C103.539 4.88276 103.303 5.40809 103.303 5.98721C103.303 6.49988 103.437 6.74039 103.636 7.16761L109.088 18.9842C109.103 19.0159 109.131 19.0254 109.153 19.0254C109.175 19.0254 109.203 19.0127 109.218 18.9842L114.839 7.14229C115.034 6.7214 115.214 6.4176 115.214 5.91759C115.214 5.35429 114.966 4.84479 114.578 4.50301C114.537 4.4682 114.553 4.42073 114.559 4.4144C114.559 4.39858 114.587 4.36377 114.627 4.36377H118.116C118.16 4.36377 118.178 4.40174 118.181 4.41757M94.6696 13.7943C94.6696 9.12333 91.6934 5.34163 88.0212 5.34163C84.3491 5.34163 81.3759 9.1265 81.3759 13.7943C81.3759 14.0538 81.3759 14.3196 81.3759 14.5791C81.4442 19.1709 84.3956 22.864 88.0181 22.864C91.6405 22.864 94.4646 19.3323 94.6572 14.8829C94.6727 14.519 94.6665 14.1551 94.6665 13.7943M97.4936 14.8418C97.2793 19.8482 93.051 23.8356 88.0181 23.8356C82.9852 23.8356 78.642 19.7248 78.5488 14.6139C78.5457 14.3291 78.5488 14.0443 78.5488 13.7563C78.5488 8.56953 82.8609 4.36377 88.0181 4.36377C93.1753 4.36377 97.5029 8.56953 97.5029 13.7563C97.5029 14.1171 97.5061 14.481 97.4936 14.8418ZM47.1801 17.6519C48.575 14.7057 49.9451 11.7436 51.3742 8.81637C51.3866 8.78789 51.4146 8.78156 51.427 8.78156C51.4457 8.78156 51.4705 8.79421 51.4798 8.8132C52.8406 11.7594 54.2293 14.693 55.559 17.6519C55.5683 17.6773 55.559 17.6994 55.559 17.7089C55.5527 17.7216 55.5403 17.7405 55.5093 17.7405H47.2391C47.2205 17.7405 47.1987 17.7311 47.1863 17.7089C47.177 17.6867 47.177 17.6678 47.1863 17.6519M42.2311 23.8356H44.2505C44.7724 23.8356 45.2974 23.8356 45.8194 23.8356C45.8504 23.8356 45.8784 23.8197 45.8908 23.7913C45.9063 23.7565 45.8939 23.7216 45.8691 23.6963C45.4683 23.3451 45.2136 22.8261 45.2136 22.2469C45.2136 21.7944 45.344 21.5317 45.5211 21.1615L46.5712 18.9494C46.5836 18.9241 46.6023 18.9115 46.6116 18.902C46.624 18.8925 46.6426 18.8861 46.6675 18.8861H56.0654C56.0933 18.8861 56.112 18.8956 56.1244 18.902C56.1368 18.9115 56.1524 18.9273 56.1617 18.9494L57.1465 21.0792C57.218 21.2406 57.2863 21.3703 57.3391 21.5381C57.4013 21.7406 57.4323 21.9526 57.4323 22.1742C57.4323 22.7723 57.1931 23.3134 56.8048 23.6995C56.783 23.7216 56.7706 23.7533 56.7861 23.7913C56.7954 23.8197 56.8296 23.8356 56.8545 23.8356H62.2136C62.2509 23.8356 62.2757 23.8134 62.285 23.7818C62.2913 23.747 62.2695 23.7122 62.2478 23.6995C61.4649 23.3102 60.8218 22.6742 60.4148 21.8925C60.3433 21.7533 60.2781 21.6109 60.2128 21.4653L52.8903 5.62012L52.3435 4.43656C52.3311 4.40807 52.3062 4.36693 52.2472 4.36693C52.1882 4.36693 52.1602 4.41124 52.154 4.43023L50.7839 7.31318L43.9553 21.7058C43.8839 21.8577 43.8093 22.0096 43.7285 22.1552C43.3619 22.7976 42.8307 23.3356 42.1938 23.7058C42.169 23.7216 42.1534 23.7438 42.1565 23.7818C42.1596 23.8134 42.1907 23.8419 42.2249 23.8419M20.6859 33.1648C20.8475 36.0446 19.6545 39.5985 16.467 41.0194C15.2305 41.5732 13.5839 41.9308 11.7261 41.6048C11.6577 41.5922 11.5987 41.5795 11.549 41.5732C11.5366 41.5732 11.5304 41.5574 11.5335 41.551C11.5335 41.5415 11.5397 41.532 11.5552 41.5352C11.6111 41.5384 11.6764 41.5479 11.7416 41.5542C13.4099 41.7377 14.9509 41.3168 16.1563 40.6301C18.623 39.225 19.99 36.3737 19.6638 33.2376C19.3189 29.9401 17.4332 26.6679 12.3133 23.7786C8.5417 21.6488 5.75185 18.883 5.89476 14.3829C6.00039 11.0379 7.54133 7.88597 11.0519 5.89544C11.2042 5.80683 11.2632 5.77518 11.431 5.73088C11.9715 5.59164 11.5925 5.74037 11.3129 5.93974C9.12887 7.50939 6.93241 10.5949 6.92619 14.3259C6.91687 19.0792 10.5114 21.0507 13.9567 23.2723C18.1508 25.9748 20.4653 29.1521 20.6921 33.1585M13.6585 6.70241C13.9257 6.70241 13.9132 6.74355 13.966 6.96824C14.3078 8.4556 12.9253 9.60435 11.5055 8.98093C11.2259 8.85751 11.257 8.82586 11.3222 8.52522C11.5583 7.45559 12.4717 6.69292 13.6616 6.70241M24.7122 25.5983C21.5651 25.266 22.5096 22.0223 19.9589 20.6045C18.9617 20.0507 17.6475 20.0001 15.7959 21.0222C15.6592 21.0982 15.6219 21.1457 15.5567 21.1362C15.4977 21.1298 15.4604 21.0697 15.3019 20.9241C14.6992 20.3608 14.1276 19.8165 13.6088 19.2849C13.5404 19.2153 13.5373 19.1931 13.5373 19.1709C13.5373 19.152 13.5466 19.114 13.6212 19.0855C15.7307 18.2659 17.6972 15.1234 19.4028 16.788C19.4277 16.8133 19.4587 16.8102 19.4805 16.7943C19.5022 16.7785 19.5116 16.7532 19.5022 16.7215C18.7535 14.6899 17.7314 14.2373 16.6534 14.3734C15.187 14.5538 14.022 16.0222 12.4841 15.693C11.0644 15.3861 10.9556 13.4936 11.2104 12.2974C11.2197 12.2658 11.2352 12.25 11.2414 12.2405C11.2508 12.231 11.2694 12.2152 11.2974 12.2088C13.2204 11.8291 15.0192 11.2594 15.945 8.64548C16.6534 6.66127 16.818 5.9524 16.3458 5.34796C16.1563 5.10745 15.8829 4.91758 15.4045 4.90492C14.721 4.88593 13.8138 4.9872 13.1272 5.05365C11.5273 5.20872 10.8065 5.25619 10.0609 5.44606C9.42401 5.60746 8.87412 5.96189 8.04151 6.85115C5.35419 9.78157 4.74838 12.3955 4.59615 15.7089C4.59615 15.7374 4.57129 15.7532 4.56197 15.7563C4.53091 15.7658 4.51226 15.7532 4.50294 15.7374C3.77286 14.7785 3.12977 13.1044 0.178375 13.5696C0.141094 13.5759 0.128667 13.6076 0.12556 13.6234C0.122454 13.6392 0.131774 13.6772 0.165948 13.6867C3.90335 14.8861 1.19428 18.9969 5.13361 19.0602C5.16157 19.0602 5.18643 19.076 5.20196 19.0823C5.22992 19.1013 5.24235 19.1203 5.25167 19.1488C6.10912 21.4052 7.67492 23.0096 9.34634 24.2438C8.26209 25.1869 8.16889 26.4179 8.38015 27.3704C8.60383 28.3768 9.06052 29.4243 9.31838 30.3483C9.58245 31.2945 9.22207 32.5477 8.28384 33.1205C8.25277 33.1395 8.25277 33.168 8.25277 33.1838C8.25277 33.1933 8.2652 33.2313 8.30558 33.2376C10.4057 33.5193 11.4247 31.8452 11.49 30.7059C11.549 29.6553 11.1855 28.4084 11.869 27.5413C12.0337 27.3293 12.3133 27.0635 12.714 26.959C13.6927 26.6964 14.8453 27.7344 15.5536 28.3483C17.2343 29.804 18.4397 31.649 18.3434 34.3389C18.2285 37.5763 15.3579 40.5004 12.1082 40.4466C8.3118 40.3833 5.90097 37.1016 5.88855 34.5572C5.87923 32.7756 6.16815 31.5983 7.02872 30.399C7.03804 30.3831 7.03804 30.3578 7.02561 30.342C7.01318 30.3262 6.99144 30.323 6.9759 30.3293C6.62795 30.5192 6.16194 30.7502 5.91651 31.0319C5.12429 31.9338 4.64585 33.5098 4.64585 35.3832C4.64585 37.0889 5.68661 39.0668 7.14988 40.3959C8.74053 41.8422 10.8997 42.8327 13.0931 42.839C15.9761 42.8422 18.0638 41.9434 19.8688 40.2061C21.5682 38.57 22.7177 36.2028 22.7705 33.7724C22.8544 29.8198 21.1333 26.7375 18.8094 24.3736C18.7815 24.3451 18.7225 24.3008 18.7318 24.2533C18.738 24.209 18.7691 24.1932 18.825 24.1805C19.2599 24.0982 19.6203 24.2406 19.844 24.4653C21.2234 25.8514 22.6804 26.9147 24.734 25.709C24.7557 25.6932 24.7713 25.671 24.765 25.6394C24.765 25.6267 24.7495 25.5951 24.7091 25.5888" fill="black"/>
</g>
<defs>
<clipPath id="clip0_1234_308">
<rect width="118" height="48" fill="white"/>
</clipPath>
</defs>
</svg>
