<svg width="24" height="24" viewBox="0 0 24 24" fill="none" xmlns="http://www.w3.org/2000/svg">
<g id="Arrow-left">
<path id="Union" fill-rule="evenodd" clip-rule="evenodd" d="M5.95752 12.2759L6.79645 12.7366C7.60161 13.1788 8.14207 13.5709 8.59392 14.0332C9.04891 14.4987 9.43339 15.0547 9.90687 15.8532L10.767 15.3432C10.2797 14.5213 9.84726 13.8848 9.30904 13.3342C9.12403 13.1449 8.92877 12.9681 8.71752 12.7984H16.9366V11.7984L8.75678 11.7984C8.92246 11.6606 9.0799 11.5147 9.23231 11.358C9.76953 10.8056 10.2276 10.1349 10.7634 9.25956L9.91049 8.73751C9.38274 9.59975 8.97177 10.1915 8.5154 10.6608C8.06635 11.1226 7.55692 11.4822 6.81485 11.8505L5.95752 12.2759Z" fill="currentColor"/>
</g>
</svg>
