<svg width="24" height="24" viewBox="0 0 24 24" fill="none" xmlns="http://www.w3.org/2000/svg">
<g id="Arrow-top-right">
<path id="Union" fill-rule="evenodd" clip-rule="evenodd" d="M15.7476 8.2207L15.4801 9.13967C15.2234 10.0217 15.1186 10.6811 15.1259 11.3275C15.1333 11.9783 15.2546 12.6434 15.4845 13.5428L14.5156 13.7904C14.279 12.8646 14.1348 12.1088 14.126 11.3389C14.123 11.0742 14.136 10.8111 14.1654 10.5417L8.35359 16.3535L7.64648 15.6464L13.4305 9.86238C13.2159 9.88213 13.0015 9.8903 12.7829 9.88725C12.0124 9.87648 11.2142 9.7262 10.2164 9.48607L10.4504 8.51383C11.4332 8.75035 12.1423 8.8782 12.7968 8.88735C13.4409 8.89635 14.0554 8.7904 14.8405 8.52608L15.7476 8.2207Z" fill="currentColor"/>
</g>
</svg>
