<svg width="24" height="24" viewBox="0 0 24 24" fill="none" xmlns="http://www.w3.org/2000/svg">
<g id="Basket">
<path id="Union" fill-rule="evenodd" clip-rule="evenodd" d="M8.94827 9.26384L9.38585 8.16991C9.81342 7.10096 10.8487 6.40002 12 6.40002C13.1513 6.40002 14.1866 7.10096 14.6142 8.16991L15.0518 9.26384H15.7511C15.9596 9.26038 16.163 9.31026 16.3456 9.40564C16.53 9.50197 16.6856 9.64061 16.8053 9.80509C16.9248 9.96937 17.0069 10.1572 17.05 10.3534C17.0931 10.5491 17.0971 10.7525 17.0621 10.9498L17.0618 10.951L16.2765 15.4488L16.2762 15.4507C16.2216 15.7575 16.0724 16.0478 15.8372 16.2633C15.6019 16.479 15.2941 16.6055 14.9654 16.6001H9.00579C8.6771 16.6055 8.36938 16.479 8.13406 16.2633C7.89882 16.0478 7.74965 15.7575 7.69505 15.4507L7.69471 15.4488L6.90941 10.951L6.90919 10.9498C6.87416 10.7525 6.87818 10.5491 6.92121 10.3534C6.96432 10.1572 7.04647 9.96937 7.16598 9.80509C7.28563 9.64061 7.44128 9.50197 7.62565 9.40564C7.80823 9.31026 8.01165 9.26038 8.22015 9.26384H8.94827ZM10.5 8.61557C10.7454 8.00222 11.3394 7.60002 12 7.60002C12.6606 7.60002 13.2547 8.00222 13.5 8.61557L13.7593 9.26384H10.2407L10.5 8.61557ZM9.14069 10.4638H14.8306C14.8389 10.464 14.8473 10.464 14.8557 10.4638L15.7569 10.464L15.7708 10.4637C15.7737 10.4636 15.7799 10.464 15.7899 10.4692C15.8005 10.4748 15.8173 10.4869 15.8349 10.511C15.8526 10.5353 15.8688 10.569 15.878 10.6109C15.8872 10.6528 15.8881 10.6974 15.8805 10.7403L15.8801 10.7424L15.0946 15.2411C15.0824 15.3091 15.0521 15.3551 15.0264 15.3786C15.0141 15.3899 15.004 15.3952 14.9978 15.3976C14.9917 15.4 14.9877 15.4002 14.9851 15.4001L9.00002 15.3999L8.98617 15.4003C8.98353 15.4003 8.97952 15.4 8.97347 15.3976C8.96727 15.3952 8.95714 15.3899 8.94479 15.3786C8.91911 15.3551 8.88875 15.3084 8.87648 15.2404L8.09114 10.7424L8.09076 10.7403C8.08311 10.6974 8.08405 10.6528 8.09324 10.6109C8.10244 10.569 8.11869 10.5353 8.13636 10.511C8.15389 10.4869 8.17071 10.4748 8.18132 10.4692C8.19135 10.464 8.19749 10.4638 8.20042 10.4638H9.11557C9.12395 10.464 9.13233 10.464 9.14069 10.4638Z" fill="currentColor"/>
</g>
</svg>
