<svg width="24" height="24" viewBox="0 0 24 24" fill="none" xmlns="http://www.w3.org/2000/svg">
<g id="Whatsapp">
<path id="Union" d="M12 6C15.0377 6 17.5 8.46235 17.5 11.5C17.5 14.5376 15.0377 17 12 17C11.028 17.0016 10.0732 16.7443 9.23351 16.2547L6.50221 17L7.24581 14.2676C6.75581 13.4277 6.49838 12.4724 6.50001 11.5C6.50001 8.46235 8.96236 6 12 6ZM10.1256 8.915L10.0156 8.9194C9.94439 8.92373 9.87479 8.94244 9.81101 8.9744C9.75134 9.00818 9.69688 9.05042 9.64931 9.0998C9.58331 9.16195 9.54591 9.21585 9.50576 9.2681C9.30232 9.53259 9.19279 9.85732 9.19446 10.191C9.19556 10.4605 9.26596 10.7228 9.37596 10.9681C9.60091 11.4642 9.97106 11.9895 10.4595 12.4762C10.5772 12.5934 10.6927 12.7111 10.817 12.8205C11.4238 13.3549 12.147 13.7402 12.929 13.9458L13.2414 13.9937C13.3431 13.9992 13.4449 13.9915 13.5472 13.9865C13.7073 13.9783 13.8637 13.9349 14.0053 13.8595C14.0773 13.8224 14.1476 13.782 14.216 13.7385C14.216 13.7385 14.2396 13.7231 14.2847 13.689C14.359 13.634 14.4046 13.5949 14.4662 13.5306C14.5119 13.4833 14.5515 13.4277 14.5817 13.3645C14.6246 13.2748 14.6675 13.1038 14.6851 12.9613C14.6983 12.8524 14.6945 12.793 14.6928 12.7562C14.6906 12.6973 14.6417 12.6363 14.5883 12.6104L14.2682 12.4669C14.2682 12.4669 13.7897 12.2584 13.4971 12.1253C13.4665 12.112 13.4337 12.1043 13.4003 12.1028C13.3627 12.0989 13.3247 12.1032 13.2888 12.1152C13.2529 12.1273 13.2201 12.1468 13.1924 12.1726C13.1897 12.1715 13.1528 12.2029 12.7552 12.6847C12.7323 12.7154 12.7009 12.7385 12.6648 12.7513C12.6288 12.764 12.5898 12.7657 12.5528 12.7562C12.5169 12.7466 12.4818 12.7345 12.4477 12.7199C12.3795 12.6913 12.3559 12.6803 12.3091 12.6605C11.9934 12.5227 11.7012 12.3366 11.4429 12.1088C11.3736 12.0483 11.3092 11.9823 11.2432 11.9185C11.0268 11.7113 10.8383 11.4769 10.6822 11.2211L10.6498 11.1689C10.6264 11.1338 10.6076 11.0959 10.5937 11.0561C10.5728 10.9753 10.6272 10.9104 10.6272 10.9104C10.6272 10.9104 10.7609 10.7641 10.823 10.6849C10.8835 10.6079 10.9347 10.5331 10.9677 10.4797C11.0326 10.3752 11.0529 10.268 11.0188 10.1849C10.8648 9.80875 10.7053 9.4342 10.5414 9.0624C10.509 8.9887 10.4127 8.9359 10.3253 8.92545C10.2956 8.92215 10.2659 8.91885 10.2362 8.91665C10.1623 8.91298 10.0883 8.91371 10.0145 8.91885L10.1251 8.91445L10.1256 8.915Z" fill="currentColor"/>
</g>
</svg>
