<svg width="24" height="24" viewBox="0 0 24 24" fill="none" xmlns="http://www.w3.org/2000/svg">
<g id="Arrow-right">
<path id="Union" fill-rule="evenodd" clip-rule="evenodd" d="M16.5977 12.7367L17.4366 12.276L16.5793 11.8505C15.8372 11.4823 15.3278 11.1227 14.8787 10.6609C14.4224 10.1916 14.0114 9.59979 13.4836 8.73755L12.6307 9.25959C13.1665 10.135 13.6246 10.8056 14.1618 11.358C14.3142 11.5148 14.4717 11.6607 14.6374 11.7984L6.45752 11.7984V12.7984H14.6766C14.4654 12.9681 14.2701 13.145 14.0851 13.3342C13.5469 13.8849 13.1144 14.5213 12.6271 15.3432L13.4873 15.8532C13.9607 15.0547 14.3452 14.4987 14.8002 14.0332C15.2521 13.571 15.7925 13.1788 16.5977 12.7367Z" fill="black"/>
</g>
</svg>
