<svg width="24" height="24" viewBox="0 0 24 24" fill="none" xmlns="http://www.w3.org/2000/svg">
<g id="Arrow-bottom">
<path id="Union" fill-rule="evenodd" clip-rule="evenodd" d="M12.0773 18.0001L11.6166 17.1612C11.1744 16.356 10.7823 15.8155 10.32 15.3637C9.85454 14.9087 9.29852 14.5242 8.5 14.0507L9.01003 13.1906C9.83193 13.6779 10.4684 14.1103 11.019 14.6486C11.2083 14.8336 11.3851 15.0288 11.5548 15.2401L11.5548 7.021L12.5548 7.021V15.2008C12.6926 15.0351 12.8385 14.8777 12.9952 14.7253C13.5477 14.1881 14.2183 13.73 15.0937 13.1942L15.6157 14.0471C14.7535 14.5749 14.1617 14.9858 13.6924 15.4422C13.2306 15.8913 12.871 16.4007 12.5027 17.1428L12.0773 18.0001Z" fill="black"/>
</g>
</svg>
