<svg width="24" height="24" viewBox="0 0 24 24" fill="none" xmlns="http://www.w3.org/2000/svg">
<g id="Arrow-top-left">
<path id="Union" fill-rule="evenodd" clip-rule="evenodd" d="M7.64648 8.2207L7.91394 9.13967C8.17063 10.0217 8.2755 10.6811 8.26813 11.3275C8.26072 11.9783 8.13943 12.6434 7.90959 13.5428L8.87846 13.7904C9.11503 12.8646 9.2593 12.1088 9.26807 11.3389C9.27108 11.0742 9.25808 10.8111 9.22869 10.5417L15.0405 16.3535L15.7476 15.6464L9.96356 9.86238C10.1781 9.88213 10.3926 9.8903 10.6112 9.88725C11.3817 9.87648 12.1798 9.7262 13.1777 9.48607L12.9437 8.51383C11.9608 8.75035 11.2518 8.8782 10.5972 8.88735C9.95317 8.89635 9.33867 8.7904 8.55356 8.52608L7.64648 8.2207Z" fill="black"/>
</g>
</svg>
