<svg width="24" height="24" viewBox="0 0 24 24" fill="none" xmlns="http://www.w3.org/2000/svg">
<g id="Arrow-top">
<path id="Union" fill-rule="evenodd" clip-rule="evenodd" d="M12.0772 6.52087L11.6165 7.3598C11.1743 8.16497 10.7822 8.70542 10.3199 9.15728C9.85445 9.61226 9.29842 9.99675 8.49991 10.4702L9.00993 11.3304C9.83184 10.843 10.4683 10.4106 11.0189 9.87239C11.2082 9.68738 11.3851 9.49213 11.5548 9.28088V17.5H12.5548V9.32013C12.6925 9.48582 12.8384 9.64326 12.9951 9.79567C13.5476 10.3329 14.2182 10.791 15.0936 11.3268L15.6156 10.4738C14.7534 9.94609 14.1616 9.53513 13.6923 9.07875C13.2305 8.6297 12.8709 8.12027 12.5026 7.37821L12.0772 6.52087Z" fill="black"/>
</g>
</svg>
