<svg width="24" height="24" viewBox="0 0 24 24" fill="none" xmlns="http://www.w3.org/2000/svg">
<g id="Marker">
<path id="Union" fill-rule="evenodd" clip-rule="evenodd" d="M11.5 5.40002C10.5289 5.40002 9.6294 5.76746 8.86285 6.37081C7.59928 7.36537 7.22481 8.80379 7.35507 10.2278C7.48403 11.6374 8.10554 13.0866 8.90738 14.2626L11.5 18.0651L14.2194 14.0767C14.9817 12.9586 15.5924 11.5854 15.7412 10.2394C15.8916 8.87948 15.5699 7.49246 14.3908 6.501C13.5553 5.79847 12.5578 5.40002 11.5 5.40002ZM9.60504 7.31376C10.199 6.84622 10.8438 6.60002 11.5 6.60002C12.2448 6.60002 12.9747 6.87813 13.6185 7.41945C14.4066 8.0822 14.6684 9.02258 14.5485 10.1075C14.427 11.2062 13.9135 12.3951 13.2279 13.4007L11.5 15.9349L9.89886 13.5866C9.17973 12.5319 8.65586 11.2748 8.55008 10.1184C8.44561 8.97644 8.74704 7.9891 9.60504 7.31376ZM11.5 11C12.3284 11 13 10.3284 13 9.5C13 8.67157 12.3284 8 11.5 8C10.6716 8 10 8.67157 10 9.5C10 10.3284 10.6716 11 11.5 11Z" fill="black"/>
</g>
</svg>
