<svg width="24" height="24" viewBox="0 0 24 24" fill="none" xmlns="http://www.w3.org/2000/svg">
<g id="VK">
<path id="Union" d="M18.679 9.6989C18.7768 9.40055 18.679 9.18176 18.2165 9.18176H16.6843C16.2945 9.18176 16.1163 9.37104 16.0185 9.57892C16.0185 9.57892 15.2395 11.3234 14.1356 12.4546C13.7793 12.7837 13.6165 12.8877 13.4223 12.8877C13.3252 12.8877 13.1841 12.7837 13.1841 12.4854V9.6989C13.1841 9.34088 13.0716 9.18176 12.7467 9.18176H10.3391C10.096 9.18176 9.94929 9.3473 9.94929 9.50513C9.94929 9.8439 10.5012 9.92217 10.5578 10.8769V12.948C10.5578 13.4016 10.4691 13.4844 10.2735 13.4844C9.75436 13.4844 8.49119 11.7334 7.74153 9.72905C7.59551 9.3396 7.44809 9.1824 7.05685 9.1824H5.52539C5.08733 9.1824 5 9.37168 5 9.57956C5 9.95297 5.5191 11.8008 7.41805 14.2447C8.68402 15.9135 10.4663 16.8181 12.09 16.8181C13.0632 16.8181 13.1834 16.6173 13.1834 16.2708V15.0094C13.1834 14.6078 13.2763 14.527 13.5844 14.527C13.8108 14.527 14.2006 14.6322 15.1096 15.4361C16.1478 16.3895 16.3196 16.8175 16.903 16.8175H18.4345C18.8718 16.8175 19.0905 16.6167 18.9648 16.2202C18.8271 15.8256 18.3311 15.2513 17.6729 14.5719C17.3152 14.1843 16.7808 13.7673 16.618 13.5588C16.3909 13.2899 16.4566 13.1713 16.618 12.9326C16.6187 12.9332 18.4848 10.5195 18.679 9.6989Z" fill="black"/>
</g>
</svg>
