<svg width="40" height="40" viewBox="0 0 40 40" fill="none" xmlns="http://www.w3.org/2000/svg">
<rect width="40" height="40" rx="20" fill="black"/>
<path d="M25.0161 25.7629C25.1144 27.4709 24.3882 29.5786 22.4479 30.4214C21.6952 30.7498 20.6929 30.9619 19.5619 30.7686C19.5203 30.7611 19.4844 30.7536 19.4542 30.7498C19.4466 30.7498 19.4428 30.7405 19.4447 30.7367C19.4447 30.7311 19.4485 30.7254 19.4579 30.7273C19.492 30.7292 19.5317 30.7348 19.5714 30.7386C20.587 30.8474 21.525 30.5978 22.2587 30.1905C23.7603 29.3572 24.5924 27.6661 24.3939 25.806C24.184 23.8503 23.036 21.9096 19.9194 20.1959C17.6235 18.9328 15.9252 17.2923 16.0122 14.6234C16.0765 12.6395 17.0145 10.77 19.1516 9.58947C19.2442 9.53691 19.2802 9.51815 19.3823 9.49187C19.7113 9.40928 19.4806 9.4975 19.3104 9.61575C17.9809 10.5467 16.6439 12.3767 16.6401 14.5896C16.6344 17.4087 18.8225 18.578 20.9198 19.8956C23.4729 21.4985 24.8818 23.3829 25.0198 25.7591M20.7382 10.0681C20.9009 10.0681 20.8933 10.0925 20.9255 10.2257C21.1335 11.1079 20.2919 11.7892 19.4277 11.4195C19.2575 11.3463 19.2764 11.3275 19.3161 11.1492C19.4598 10.5148 20.0158 10.0625 20.7401 10.0681M27.467 21.2752C25.5513 21.0781 26.1262 19.1542 24.5735 18.3134C23.9665 17.9849 23.1665 17.9549 22.0394 18.5611C21.9562 18.6062 21.9335 18.6343 21.8938 18.6287C21.8578 18.625 21.8351 18.5893 21.7387 18.5029C21.3718 18.1689 21.0238 17.846 20.708 17.5307C20.6664 17.4894 20.6645 17.4763 20.6645 17.4631C20.6645 17.4519 20.6702 17.4294 20.7156 17.4125C21.9997 16.9263 23.1968 15.0626 24.235 16.0498C24.2501 16.0648 24.2691 16.063 24.2823 16.0536C24.2955 16.0442 24.3012 16.0292 24.2955 16.0104C23.8398 14.8054 23.2176 14.537 22.5613 14.6177C21.6687 14.7247 20.9595 15.5956 20.0234 15.4004C19.1591 15.2183 19.0929 14.0959 19.248 13.3865C19.2537 13.3677 19.2631 13.3583 19.2669 13.3527C19.2726 13.3471 19.2839 13.3377 19.301 13.3339C20.4716 13.1087 21.5666 12.7708 22.1301 11.2205C22.5613 10.0437 22.6616 9.62325 22.3741 9.26476C22.2587 9.12212 22.0923 9.0095 21.8011 9.00199C21.385 8.99073 20.8328 9.05079 20.4149 9.09021C19.4409 9.18218 19.0022 9.21033 18.5483 9.32295C18.1606 9.41867 17.8259 9.62888 17.319 10.1563C15.6832 11.8943 15.3144 13.4447 15.2217 15.4098C15.2217 15.4267 15.2066 15.4361 15.2009 15.4379C15.182 15.4436 15.1707 15.4361 15.165 15.4267C14.7206 14.858 14.3291 13.8651 12.5325 14.141C12.5098 14.1447 12.5022 14.1635 12.5003 14.1729C12.4984 14.1823 12.5041 14.2048 12.5249 14.2104C14.8 14.9218 13.1509 17.3599 15.5489 17.3974C15.5659 17.3974 15.581 17.4068 15.5905 17.4106C15.6075 17.4218 15.6151 17.4331 15.6208 17.45C16.1427 18.7882 17.0959 19.7398 18.1133 20.4718C17.4533 21.0312 17.3966 21.7613 17.5252 22.3262C17.6613 22.9231 17.9393 23.5444 18.0963 24.0924C18.257 24.6536 18.0377 25.3969 17.4665 25.7366C17.4476 25.7479 17.4476 25.7647 17.4476 25.7741C17.4476 25.7798 17.4552 25.8023 17.4798 25.806C18.7582 25.9731 19.3785 24.9802 19.4182 24.3045C19.4542 23.6814 19.2329 22.9419 19.6489 22.4276C19.7492 22.3018 19.9194 22.1442 20.1633 22.0822C20.7591 21.9264 21.4607 22.5421 21.8919 22.9062C22.915 23.7696 23.6488 24.8638 23.5901 26.4592C23.5202 28.3793 21.7727 30.1136 19.7946 30.0817C17.4836 30.0441 16.016 28.0978 16.0084 26.5887C16.0028 25.532 16.1787 24.8338 16.7025 24.1224C16.7082 24.1131 16.7082 24.098 16.7006 24.0887C16.6931 24.0793 16.6798 24.0774 16.6704 24.0812C16.4585 24.1938 16.1749 24.3308 16.0255 24.4978C15.5432 25.0327 15.252 25.9675 15.252 27.0786C15.252 28.0902 15.8855 29.2633 16.7763 30.0516C17.7445 30.9094 19.0589 31.4969 20.3941 31.5006C22.1491 31.5025 23.4199 30.9694 24.5187 29.939C25.5532 28.9686 26.2529 27.5647 26.285 26.1232C26.3361 23.779 25.2884 21.9508 23.8738 20.5488C23.8568 20.5319 23.8208 20.5056 23.8265 20.4775C23.8303 20.4512 23.8492 20.4418 23.8833 20.4343C24.148 20.3855 24.3674 20.47 24.5036 20.6032C25.3432 21.4253 26.2302 22.056 27.4802 21.3409C27.4935 21.3315 27.5029 21.3183 27.4992 21.2996C27.4992 21.2921 27.4897 21.2733 27.4651 21.2695" fill="white"/>
</svg>
