<svg width="98" height="40" viewBox="0 0 98 40" fill="none" xmlns="http://www.w3.org/2000/svg">
<g id="Theme=Dark, Size=S" clip-path="url(#clip0_1272_2464)">
<path id="Union" d="M61.0245 32.6612C60.8955 32.7772 60.831 32.9513 60.831 33.178C60.831 33.4048 60.893 33.571 61.0168 33.6897C61.1406 33.811 61.3238 33.869 61.5664 33.869H62.3224V32.4845H61.587C61.3419 32.4845 61.1535 32.5425 61.0245 32.6585M63.1764 31.7645V35.5805H62.3224V34.5678H61.5328L60.8723 35.5805H59.9589L60.7381 34.4307C60.4853 34.3252 60.2918 34.167 60.1576 33.9534C60.0234 33.7398 59.9564 33.4866 59.9564 33.1886C59.9564 32.8906 60.0234 32.6401 60.1524 32.4291C60.284 32.2155 60.4698 32.052 60.7123 31.9386C60.9549 31.8252 61.2387 31.7672 61.5664 31.7672H63.1764V31.7645ZM58.7256 34.7577C58.852 34.6443 58.914 34.4808 58.914 34.2672C58.914 33.8716 58.6766 33.6738 58.1993 33.6738H57.42V34.9265H58.1993C58.4237 34.9265 58.5992 34.8711 58.7256 34.7577ZM59.4197 33.3284C59.6622 33.5367 59.7861 33.8426 59.7861 34.2487C59.7861 34.6812 59.6519 35.0109 59.3836 35.2377C59.1152 35.4645 58.7385 35.5779 58.2509 35.5779H56.566V31.7619H57.4252V33.0145H58.3747C58.8288 33.0145 59.1797 33.1174 59.4223 33.3257M55.0102 34.4333C55.0102 34.1169 54.8089 33.9586 54.4012 33.9586H53.4517V34.9239H54.4012C54.8063 34.9239 55.0102 34.7603 55.0102 34.4333ZM53.4543 33.3442H54.2593C54.4477 33.3442 54.5896 33.3046 54.6851 33.2282C54.7805 33.149 54.8296 33.0356 54.8296 32.8827C54.8296 32.7297 54.7805 32.619 54.6825 32.5399C54.5844 32.4607 54.4425 32.4212 54.2593 32.4212H53.4543V33.3468V33.3442ZM55.7042 33.927C55.8255 34.0826 55.8848 34.2751 55.8848 34.5045C55.8848 34.8421 55.7584 35.1058 55.5081 35.2957C55.2579 35.4856 54.8992 35.5779 54.4348 35.5779H52.5951V31.7619H54.3342C54.7676 31.7619 55.1056 31.8463 55.3482 32.0177C55.5907 32.1891 55.712 32.4317 55.712 32.7482C55.712 32.9381 55.6655 33.1042 55.5726 33.2466C55.4798 33.389 55.3508 33.5024 55.183 33.5868C55.4101 33.6554 55.5855 33.7688 55.7068 33.9244M50.4871 34.734C50.6652 34.6311 50.8045 34.4861 50.9051 34.3015C51.0058 34.1169 51.0574 33.9059 51.0574 33.6686C51.0574 33.4312 51.0058 33.2229 50.9051 33.0356C50.8045 32.851 50.6652 32.706 50.4871 32.6031C50.3091 32.5003 50.1104 32.4475 49.8885 32.4475C49.6666 32.4475 49.468 32.5003 49.2899 32.6031C49.1119 32.706 48.9726 32.851 48.872 33.0356C48.7713 33.2202 48.7197 33.4312 48.7197 33.6686C48.7197 33.9059 48.7713 34.1169 48.872 34.3015C48.9726 34.4861 49.1119 34.6311 49.2899 34.734C49.468 34.8368 49.6666 34.8896 49.8885 34.8896C50.1104 34.8896 50.3091 34.8368 50.4871 34.734ZM48.841 35.3854C48.5288 35.2139 48.2863 34.9792 48.1108 34.6786C47.9354 34.378 47.8476 34.043 47.8476 33.6686C47.8476 33.2941 47.9354 32.9565 48.1108 32.6585C48.2863 32.3579 48.5314 32.1232 48.841 31.9518C49.1532 31.7803 49.5015 31.696 49.8885 31.696C50.2756 31.696 50.6239 31.7803 50.9335 31.9518C51.2431 32.1232 51.4857 32.3579 51.6637 32.6585C51.8417 32.9592 51.9295 33.2967 51.9295 33.6686C51.9295 34.0404 51.8391 34.3806 51.6637 34.6786C51.4857 34.9792 51.2431 35.2139 50.9335 35.3854C50.6239 35.5568 50.2756 35.6412 49.8885 35.6412C49.5015 35.6412 49.1506 35.5568 48.841 35.3854ZM46.4079 33.6316C46.5421 33.5182 46.6117 33.3547 46.6117 33.1438C46.6117 32.9328 46.5446 32.764 46.4079 32.6506C46.2737 32.5372 46.0751 32.4792 45.817 32.4792H45.1127V33.8031H45.817C46.0776 33.8031 46.2737 33.745 46.4079 33.6316ZM46.7253 31.928C46.9678 32.0414 47.1561 32.1997 47.2877 32.408C47.4193 32.6163 47.4838 32.8616 47.4838 33.1438C47.4838 33.4259 47.4167 33.6686 47.2877 33.8769C47.1561 34.0852 46.9678 34.2461 46.7253 34.3569C46.4827 34.4676 46.1937 34.523 45.8635 34.523H45.1127V35.5752H44.2483V31.7593H45.8635C46.1937 31.7593 46.4801 31.8146 46.7253 31.928ZM42.1351 34.7313C42.3132 34.6285 42.4525 34.4834 42.5531 34.2988C42.6538 34.1142 42.7054 33.9033 42.7054 33.6659C42.7054 33.4286 42.6538 33.2202 42.5531 33.033C42.4525 32.8484 42.3132 32.7034 42.1351 32.6005C41.9571 32.4977 41.7584 32.4449 41.5391 32.4449C41.3198 32.4449 41.1186 32.4977 40.9405 32.6005C40.7625 32.7034 40.6232 32.8484 40.5225 33.033C40.4219 33.2176 40.3703 33.4286 40.3703 33.6659C40.3703 33.9033 40.4219 34.1142 40.5225 34.2988C40.6232 34.4834 40.7625 34.6285 40.9405 34.7313C41.1186 34.8342 41.3172 34.8869 41.5391 34.8869C41.761 34.8869 41.9597 34.8342 42.1351 34.7313ZM40.489 35.3827C40.1768 35.2113 39.9343 34.9766 39.7588 34.676C39.5834 34.3753 39.4956 34.0404 39.4956 33.6659C39.4956 33.2914 39.5834 32.9539 39.7588 32.6559C39.9343 32.3552 40.1794 32.1205 40.489 31.9491C40.8012 31.7777 41.1495 31.6933 41.5365 31.6933C41.9236 31.6933 42.2719 31.7777 42.5815 31.9491C42.8911 32.1205 43.1337 32.3552 43.3117 32.6559C43.4897 32.9565 43.5775 33.2941 43.5775 33.6659C43.5775 34.0378 43.4871 34.378 43.3117 34.676C43.1337 34.9766 42.8911 35.2113 42.5815 35.3827C42.2719 35.5541 41.9236 35.6385 41.5365 35.6385C41.1495 35.6385 40.7986 35.5541 40.489 35.3827ZM36.3917 34.1749C36.3349 34.4834 36.2472 34.7076 36.1311 34.8526H37.8005V32.4766H36.5207L36.5052 33.033C36.4872 33.4866 36.451 33.869 36.3943 34.1749M39.1783 34.8526V36.3637H38.3784V35.5726H35.7441V36.3637H34.9442L34.9494 34.8526H35.099C35.3235 34.8447 35.4809 34.6786 35.5738 34.3516C35.6667 34.0246 35.7234 33.5578 35.7441 32.9513L35.7853 31.7566H38.6545V34.8526H39.1783ZM34.4617 33.9402C34.583 34.1011 34.6449 34.2909 34.6449 34.5045C34.6449 34.7366 34.5701 34.9397 34.4204 35.1085C34.2708 35.2799 34.0695 35.4091 33.8141 35.5014C33.5587 35.5911 33.2826 35.6385 32.9781 35.6385C32.7227 35.6385 32.4673 35.6042 32.2118 35.541C31.959 35.475 31.7164 35.3748 31.4894 35.2403L31.7551 34.6074C31.9177 34.7102 32.0983 34.7867 32.297 34.8395C32.4931 34.8922 32.6866 34.9186 32.8749 34.9186C33.1304 34.9186 33.3445 34.8711 33.5122 34.7762C33.6799 34.6812 33.7651 34.5494 33.7651 34.378C33.7651 34.2355 33.7083 34.1301 33.5922 34.0562C33.4761 33.9824 33.3187 33.9481 33.12 33.9481H32.2092V33.2835H33.0581C33.2336 33.2835 33.3677 33.2466 33.4658 33.1754C33.5638 33.1042 33.6128 33.004 33.6128 32.8748C33.6128 32.7245 33.5432 32.6084 33.4013 32.5267C33.2594 32.4449 33.0813 32.4001 32.8594 32.4001C32.6969 32.4001 32.5266 32.4238 32.3537 32.4686C32.1809 32.5135 32.0131 32.582 31.8583 32.6717L31.5977 31.986C31.9925 31.7777 32.4182 31.6749 32.8775 31.6749C33.1691 31.6749 33.4374 31.7171 33.6825 31.8067C33.9276 31.8937 34.1237 32.0203 34.2682 32.1891C34.4127 32.3579 34.4875 32.5504 34.4875 32.7719C34.4875 32.9539 34.4385 33.1148 34.343 33.2572C34.2476 33.3996 34.116 33.5077 33.9483 33.5842C34.165 33.6607 34.3353 33.7793 34.4566 33.9402M25.9369 31.7566H26.796V34.2435L28.5764 31.7566H29.3865V35.5726H28.5325V33.0937L26.7522 35.5726H25.9369V31.7566ZM68.9998 27.5424L68.409 26.0814L67.8181 27.5424H69.0024H68.9998ZM69.2708 28.2123H67.5369L67.2066 29.0298H66.3216L67.9858 25.2138H68.8399L70.5092 29.0298H69.6036L69.2733 28.2123H69.2708ZM66.3861 25.9337H65.1915V29.0298H64.3375V25.9337H63.148V25.2138H66.3835V25.9337H66.3861ZM61.9869 27.0862C62.1211 26.9701 62.1882 26.8093 62.1882 26.5983C62.1882 26.3873 62.1211 26.2186 61.9869 26.1052C61.8528 25.9918 61.6541 25.9337 61.3935 25.9337H60.6891V27.2576H61.3935C61.6541 27.2576 61.8502 27.1996 61.9869 27.0862ZM62.3043 25.3826C62.5468 25.496 62.7352 25.6542 62.8668 25.8625C62.9984 26.0709 63.0654 26.3161 63.0654 26.5983C63.0654 26.8805 62.9984 27.1231 62.8668 27.3314C62.7352 27.5398 62.5468 27.7006 62.3043 27.8114C62.0618 27.9222 61.7728 27.9776 61.4425 27.9776H60.6917V29.0298H59.8273V25.2138H61.4425C61.7728 25.2138 62.0592 25.2692 62.3043 25.3826ZM57.7142 28.1859C57.8922 28.083 58.0315 27.938 58.1322 27.7534C58.2328 27.5688 58.2844 27.3578 58.2844 27.1205C58.2844 26.8831 58.2328 26.6748 58.1322 26.4875C58.0315 26.3029 57.8922 26.1579 57.7142 26.0551C57.5362 25.9522 57.3375 25.8995 57.1156 25.8995C56.8937 25.8995 56.695 25.9522 56.517 26.0551C56.339 26.1579 56.1996 26.3029 56.099 26.4875C55.9984 26.6721 55.9468 26.8831 55.9468 27.1205C55.9468 27.3578 55.9984 27.5688 56.099 27.7534C56.1996 27.938 56.339 28.083 56.517 28.1859C56.695 28.2887 56.8937 28.3415 57.1156 28.3415C57.3375 28.3415 57.5362 28.2887 57.7142 28.1859ZM56.068 28.8373C55.7558 28.6659 55.5133 28.4311 55.3379 28.1305C55.1624 27.8299 55.0747 27.4949 55.0747 27.1205C55.0747 26.746 55.1624 26.4084 55.3379 26.1104C55.5133 25.8098 55.7584 25.5751 56.068 25.4037C56.3777 25.2323 56.7286 25.1479 57.1156 25.1479C57.5026 25.1479 57.8509 25.2323 58.1606 25.4037C58.4702 25.5751 58.7127 25.8098 58.8907 26.1104C59.0688 26.4111 59.1565 26.7486 59.1565 27.1205C59.1565 27.4923 59.0688 27.8325 58.8907 28.1305C58.7127 28.4311 58.4702 28.6659 58.1606 28.8373C57.8509 29.0087 57.5026 29.0931 57.1156 29.0931C56.7286 29.0931 56.3777 29.0087 56.068 28.8373ZM54.4064 25.2138V29.0298H53.5472V25.9337H51.8624V29.0298H51.0032V25.2138H54.4064ZM47.8657 28.8425C47.5587 28.6738 47.3161 28.4391 47.1407 28.1384C46.9652 27.8378 46.8775 27.5002 46.8775 27.1231C46.8775 26.746 46.9652 26.4058 47.1407 26.1078C47.3161 25.8072 47.5587 25.5751 47.8657 25.4037C48.1727 25.2349 48.5185 25.1505 48.9029 25.1505C49.2254 25.1505 49.5196 25.2085 49.7802 25.3246C50.0408 25.4406 50.2601 25.6094 50.4381 25.8256L49.8834 26.3478C49.6305 26.0498 49.3183 25.9021 48.9442 25.9021C48.712 25.9021 48.5056 25.9548 48.325 26.0577C48.1443 26.1605 48.0024 26.3056 47.9018 26.4902C47.8012 26.6748 47.7496 26.8858 47.7496 27.1231C47.7496 27.3605 47.8012 27.5714 47.9018 27.756C48.0024 27.9406 48.1443 28.0857 48.325 28.1885C48.5056 28.2914 48.712 28.3441 48.9442 28.3441C49.3183 28.3441 49.6305 28.1938 49.8834 27.8905L50.4381 28.4127C50.2601 28.6342 50.0408 28.803 49.7776 28.919C49.5144 29.0351 49.2203 29.0931 48.8978 29.0931C48.5185 29.0931 48.1727 29.0087 47.8657 28.8399M43.9232 27.0862C44.0574 26.9701 44.1244 26.8093 44.1244 26.5983C44.1244 26.3873 44.0574 26.2186 43.9232 26.1052C43.789 25.9918 43.5904 25.9337 43.3298 25.9337H42.6254V27.2576H43.3298C43.5904 27.2576 43.7864 27.1996 43.9232 27.0862ZM44.2406 25.3826C44.4831 25.496 44.6714 25.6542 44.803 25.8625C44.9346 26.0709 45.0017 26.3161 45.0017 26.5983C45.0017 26.8805 44.9346 27.1231 44.803 27.3314C44.6714 27.5398 44.4831 27.7006 44.2406 27.8114C43.998 27.9222 43.709 27.9776 43.3788 27.9776H42.6279V29.0298H41.7636V25.2138H43.3788C43.709 25.2138 43.9954 25.2692 44.2406 25.3826ZM41.2192 25.9337H40.0246V29.0298H39.1705V25.9337H37.9811V25.2138H41.2192V25.9337ZM37.4341 25.2138V29.0298H36.5697V27.4659H34.8745V29.0298H34.0102V25.2138H34.8745V26.717H36.5697V25.2138H37.4341ZM33.311 28.3204V29.0298H30.4212V25.2138H33.2413V25.9232H31.2778V26.7513H33.0117V27.4369H31.2778V28.3204H33.311ZM29.851 28.3098V29.8368H29.0563V29.0298H25.9369V25.2138H26.796V28.3098H28.4603V25.2138H29.3195V28.3098H29.8535H29.851ZM65.1064 3.63911C65.1347 3.63911 65.1605 3.66285 65.1631 3.68922C65.1683 3.7235 65.1528 3.7446 65.1296 3.75515C64.5284 4.10589 64.0408 4.6386 63.7363 5.27943L63.7286 5.29262L57.9954 17.413L56.8576 19.8181C56.8576 19.8181 56.8292 19.8683 56.7802 19.8683C56.7311 19.8683 56.7079 19.834 56.7002 19.8102L56.2461 18.8239L50.4613 6.24727C50.3014 5.89653 50.1466 5.51678 49.9582 5.17658C49.6176 4.56212 49.1042 4.06633 48.4823 3.75251C48.4591 3.74196 48.4436 3.71295 48.4488 3.68394C48.4565 3.65757 48.4772 3.63647 48.5082 3.63647H52.9589C52.9796 3.63647 53.008 3.6523 53.0157 3.67603C53.026 3.70504 53.0209 3.73141 52.9976 3.75251C52.6777 4.07424 52.4764 4.5252 52.4764 5.02363C52.4764 5.20823 52.5048 5.38228 52.5538 5.54842C52.6648 5.92026 52.9022 6.34485 53.0673 6.70087C54.1174 8.99784 55.1624 11.2948 56.2254 13.5865C56.6254 14.441 57.0201 15.298 57.4149 16.1578C57.4226 16.1736 57.4433 16.1841 57.4613 16.1841C57.4742 16.1841 57.4949 16.1789 57.5078 16.1578C58.1683 14.7996 58.8133 13.4336 59.4558 12.0622L62.1082 6.43187C62.3224 5.98092 62.6268 5.48249 62.6268 4.96297C62.6268 4.48037 62.4178 4.04524 62.0824 3.75251C62.0592 3.73405 62.0514 3.7024 62.0669 3.67603C62.0772 3.6523 62.1005 3.63647 62.1263 3.63647H65.1038L65.1064 3.63911ZM25.7201 7.33642C25.7201 5.64072 27.2218 3.6523 29.6626 3.6523C31.2597 3.6523 32.0002 4.37224 33.2748 4.62541C33.3058 4.63069 33.3316 4.65178 33.3471 4.67816C33.36 4.69925 33.3652 4.72563 33.3626 4.74936L33.1433 6.95667C33.1407 6.98568 33.12 7.0015 33.0994 7.00414C33.071 7.00414 33.0504 6.98568 33.0478 6.96458C32.7537 5.27416 31.2984 4.33005 29.642 4.30895C28.5764 4.2984 27.4772 4.74672 27.2063 5.89125C27.0592 6.51363 27.2218 7.02524 27.4721 7.42345C28.708 9.39078 34.0876 11.7115 34.0876 15.4721C34.0876 18.46 31.8635 19.9817 29.1492 19.8683C28.081 19.8208 27.0334 19.2723 26.2439 19.4964C26.2181 19.5017 26.1975 19.5017 26.1794 19.4964C26.1536 19.4885 26.1381 19.478 26.12 19.4542C25.7846 18.9848 25.506 18.2121 25.5266 16.9621C25.5266 16.9436 25.5395 16.8962 25.5911 16.8856C25.635 16.8751 25.6737 16.9041 25.6814 16.9252C26.3239 18.3914 27.5211 19.1483 29.1363 19.18C30.7308 19.2116 32.4389 18.5286 32.4905 16.7669C32.5472 14.8735 30.4754 13.481 29.0589 12.3972C28.2538 11.7827 26.9483 10.7094 26.4168 9.86811C25.8104 8.91345 25.7175 8.36492 25.7175 7.33906M98.148 3.68394C98.148 3.68394 98.1609 3.73141 98.1222 3.75515C97.632 4.0426 97.2191 4.45136 96.925 4.94451C96.7934 5.1634 96.685 5.41129 96.5767 5.64336C94.5022 10.0448 92.4381 14.4621 90.3275 18.845L89.9869 19.5729V19.565C89.6928 20.1689 89.3083 20.8044 88.9084 21.1552C88.4491 21.5587 87.8222 21.8382 86.7978 21.8725C86.7823 21.8725 86.754 21.8672 86.7462 21.8356C86.7359 21.8039 86.7591 21.7802 86.772 21.7749C87.479 21.4215 87.977 20.9521 88.3666 20.4352C88.7846 19.8762 89.1432 19.1694 89.4554 18.4916C89.4606 18.4785 89.4631 18.4626 89.4631 18.4574C89.4631 18.4495 89.4606 18.4284 89.4554 18.4152L83.6242 5.73302C83.5004 5.46403 83.392 5.21614 83.2372 4.96825C82.9095 4.454 82.4477 4.03205 81.9058 3.75778C81.8852 3.74724 81.862 3.71823 81.8723 3.68658C81.88 3.65757 81.9058 3.64175 81.9291 3.64175C83.3714 3.64175 84.8137 3.64175 86.256 3.64175C86.2869 3.64175 86.3102 3.66548 86.3153 3.68131C86.3205 3.69713 86.3282 3.72614 86.3024 3.75251C85.9902 4.06897 85.7941 4.50674 85.7941 4.98934C85.7941 5.41656 85.9051 5.61699 86.0702 5.97301L90.5984 15.8202C90.6113 15.8466 90.6345 15.8545 90.6526 15.8545C90.6707 15.8545 90.6939 15.8439 90.7068 15.8202L95.3743 5.95191C95.5368 5.60117 95.6865 5.348 95.6865 4.93132C95.6865 4.46191 95.4801 4.03732 95.1576 3.75251C95.124 3.7235 95.1369 3.68394 95.1421 3.67867C95.1421 3.66548 95.1653 3.63647 95.1988 3.63647H98.0964C98.1325 3.63647 98.148 3.66812 98.1506 3.68131M78.6239 11.4952C78.6239 7.60278 76.1521 4.45136 73.1023 4.45136C70.0525 4.45136 67.5833 7.60541 67.5833 11.4952C67.5833 11.7115 67.5833 11.933 67.5833 12.1493C67.6401 15.9758 70.0912 19.0534 73.0997 19.0534C76.1082 19.0534 78.4536 16.1103 78.6135 12.4024C78.6264 12.0992 78.6213 11.7959 78.6213 11.4952M80.9692 12.3681C80.7912 16.5401 77.2796 19.863 73.0997 19.863C68.9199 19.863 65.3128 16.4373 65.2354 12.1783C65.2328 11.9409 65.2354 11.7036 65.2354 11.4636C65.2354 7.14127 68.8166 3.63647 73.0997 3.63647C77.3828 3.63647 80.977 7.14127 80.977 11.4636C80.977 11.7642 80.9796 12.0675 80.9692 12.3681ZM39.1834 14.7099C40.3419 12.2547 41.4798 9.78635 42.6667 7.34697C42.677 7.32324 42.7002 7.31796 42.7105 7.31796C42.726 7.31796 42.7466 7.32851 42.7544 7.34433C43.8845 9.79954 45.0378 12.2442 46.1421 14.7099C46.1499 14.731 46.1421 14.7495 46.1421 14.7574C46.137 14.768 46.1267 14.7838 46.1009 14.7838H39.2324C39.217 14.7838 39.1989 14.7759 39.1886 14.7574C39.1808 14.739 39.1808 14.7231 39.1886 14.7099M35.0732 19.863H36.7503C37.1838 19.863 37.6199 19.863 38.0533 19.863C38.0791 19.863 38.1023 19.8498 38.1127 19.8261C38.1256 19.797 38.1152 19.768 38.0946 19.7469C37.7618 19.4542 37.5502 19.0217 37.5502 18.5391C37.5502 18.162 37.6586 17.9431 37.8056 17.6346L38.6777 15.7912C38.688 15.7701 38.7035 15.7595 38.7113 15.7516C38.7216 15.7437 38.7371 15.7384 38.7577 15.7384H46.5627C46.5859 15.7384 46.6014 15.7464 46.6117 15.7516C46.622 15.7595 46.6349 15.7727 46.6427 15.7912L47.4606 17.566C47.5199 17.7005 47.5767 17.8086 47.6206 17.9484C47.6722 18.1172 47.698 18.2939 47.698 18.4785C47.698 18.9769 47.4993 19.4278 47.1768 19.7496C47.1587 19.768 47.1484 19.7944 47.1613 19.8261C47.169 19.8498 47.1974 19.863 47.2181 19.863H51.6689C51.6998 19.863 51.7205 19.8445 51.7282 19.8181C51.7334 19.7891 51.7153 19.7601 51.6972 19.7496C51.047 19.4252 50.5129 18.8951 50.1749 18.2438C50.1156 18.1277 50.0614 18.009 50.0072 17.8877L43.9258 4.68343L43.4717 3.69713C43.4613 3.67339 43.4407 3.63911 43.3917 3.63911C43.3427 3.63911 43.3194 3.67603 43.3143 3.69186L42.1764 6.09432L36.5052 18.0882C36.4459 18.2147 36.3839 18.3413 36.3169 18.4626C36.0124 18.998 35.5712 19.4463 35.0423 19.7549C35.0216 19.768 35.0087 19.7865 35.0113 19.8181C35.0139 19.8445 35.0397 19.8683 35.0681 19.8683M17.1798 27.6374C17.3139 30.0372 16.3232 32.9987 13.6759 34.1828C12.649 34.6443 11.2815 34.9423 9.73857 34.6707C9.6818 34.6601 9.63278 34.6496 9.5915 34.6443C9.58118 34.6443 9.57602 34.6311 9.5786 34.6259C9.5786 34.6179 9.58376 34.61 9.59666 34.6127C9.6431 34.6153 9.69728 34.6232 9.75147 34.6285C11.137 34.7814 12.4168 34.4307 13.4179 33.8584C15.4665 32.6875 16.6018 30.3114 16.3309 27.698C16.0445 24.9501 14.4783 22.2232 10.2262 19.8155C7.0939 18.0407 4.77691 15.7358 4.8956 11.9858C4.98332 9.19826 6.26308 6.57164 9.17867 4.91286C9.3051 4.83902 9.35412 4.81265 9.49345 4.77573C9.9424 4.6597 9.62762 4.78364 9.3954 4.94978C7.58155 6.25782 5.75737 8.82906 5.75221 11.9383C5.74447 15.8993 8.72972 17.5423 11.5911 19.3936C15.0744 21.6457 16.9966 24.2934 17.1849 27.6321M11.3434 5.58534C11.5653 5.58534 11.555 5.61963 11.5989 5.80687C11.8827 7.04633 10.7345 8.00363 9.55538 7.4841C9.32316 7.38126 9.34896 7.35488 9.40315 7.10435C9.59924 6.21299 10.3578 5.57743 11.346 5.58534M20.5237 21.3319C17.91 21.055 18.6943 18.3519 16.576 17.1704C15.7478 16.7089 14.6564 16.6667 13.1186 17.5185C13.0051 17.5818 12.9741 17.6214 12.9199 17.6135C12.8709 17.6082 12.8399 17.5581 12.7083 17.4368C12.2078 16.9674 11.733 16.5138 11.3021 16.0707C11.2454 16.0127 11.2428 15.9942 11.2428 15.9758C11.2428 15.96 11.2505 15.9283 11.3125 15.9046C13.0644 15.2216 14.6976 12.6028 16.1142 13.99C16.1348 14.0111 16.1606 14.0085 16.1787 13.9953C16.1967 13.9821 16.2045 13.961 16.1967 13.9346C15.5749 12.2416 14.726 11.8644 13.8307 11.9778C12.6129 12.1282 11.6453 13.3518 10.3681 13.0775C9.18899 12.8217 9.09869 11.2447 9.31026 10.2479C9.318 10.2215 9.3309 10.2083 9.33606 10.2004C9.3438 10.1925 9.35928 10.1793 9.3825 10.174C10.9796 9.85756 12.4735 9.38287 13.2424 7.20456C13.8307 5.55106 13.9675 4.96033 13.5753 4.45663C13.4179 4.25621 13.1908 4.09798 12.7935 4.08743C12.2258 4.07161 11.4724 4.156 10.9022 4.21138C9.57344 4.3406 8.97484 4.38016 8.3556 4.53839C7.82666 4.67288 7.36997 4.96825 6.67849 5.70929C4.44665 8.15131 3.94351 10.3296 3.81708 13.0907C3.81708 13.1145 3.79644 13.1276 3.7887 13.1303C3.7629 13.1382 3.74742 13.1276 3.73968 13.1145C3.13334 12.3154 2.59925 10.9203 0.148088 11.308C0.117126 11.3133 0.106805 11.3396 0.104225 11.3528C0.101645 11.366 0.109385 11.3977 0.137767 11.4056C3.24171 12.4051 0.991803 15.8307 4.26345 15.8835C4.28668 15.8835 4.30732 15.8967 4.32022 15.9019C4.34344 15.9178 4.35376 15.9336 4.3615 15.9573C5.07363 17.8376 6.37403 19.1747 7.76216 20.2032C6.86168 20.989 6.78428 22.0149 6.95973 22.8087C7.1455 23.6473 7.52479 24.5202 7.73894 25.2903C7.95825 26.0788 7.65895 27.1231 6.87974 27.6004C6.85394 27.6163 6.85394 27.64 6.85394 27.6532C6.85394 27.6611 6.86426 27.6927 6.8978 27.698C8.642 27.9327 9.48829 26.5377 9.54248 25.5883C9.5915 24.7127 9.28962 23.6737 9.85725 22.9511C9.994 22.7744 10.2262 22.5529 10.5591 22.4659C11.3718 22.247 12.3291 23.112 12.9173 23.6236C14.3132 24.8367 15.3143 26.3742 15.2343 28.6157C15.1389 31.3136 12.7548 33.7503 10.0559 33.7055C6.90296 33.6527 4.90075 30.918 4.89043 28.7977C4.88269 27.313 5.12265 26.332 5.83736 25.3325C5.8451 25.3193 5.8451 25.2982 5.83477 25.285C5.82445 25.2718 5.80639 25.2692 5.79349 25.2745C5.50451 25.4327 5.11749 25.6252 4.91366 25.8599C4.25571 26.6115 3.85837 27.9248 3.85837 29.486C3.85837 30.9074 4.72272 32.5557 5.93798 33.6633C7.25903 34.8685 9.05224 35.6939 10.8738 35.6992C13.2682 35.7018 15.0021 34.9529 16.5012 33.5051C17.9125 32.1416 18.8672 30.169 18.9111 28.1437C18.9807 24.8499 17.5513 22.2813 15.6213 20.3113C15.5981 20.2876 15.5491 20.2506 15.5568 20.2111C15.562 20.1742 15.5878 20.161 15.6342 20.1504C15.9955 20.0819 16.2948 20.2005 16.4805 20.3878C17.6261 21.5429 18.8362 22.4289 20.5417 21.4242C20.5598 21.411 20.5727 21.3925 20.5675 21.3662C20.5675 21.3556 20.5546 21.3292 20.5211 21.324" fill="black"/>
</g>
<defs>
<clipPath id="clip0_1272_2464">
<rect width="98" height="40" fill="white"/>
</clipPath>
</defs>
</svg>
